<svg xmlns="http://www.w3.org/2000/svg" width="58" height="44" viewBox="0 0 58 44">
  <g id="code" transform="translate(0 -65.225)">
    <g id="Group_6918" data-name="Group 6918" transform="translate(0 65.225)">
      <path id="Path_576" data-name="Path 576" d="M205.873,65.819l-2.071-.545a.967.967,0,0,0-.784.08,1.051,1.051,0,0,0-.518.625l-12.457,41.37a.925.925,0,0,0,.084.785,1.077,1.077,0,0,0,.651.5l2.071.545a.964.964,0,0,0,.785-.08,1.052,1.052,0,0,0,.518-.625L206.608,67.1a.927.927,0,0,0-.084-.786A1.077,1.077,0,0,0,205.873,65.819Z" transform="translate(-169.325 -65.225)" fill="#29d6cf"/>
      <path id="Path_577" data-name="Path 577" d="M19.437,121.383a.972.972,0,0,0-.334-.725l-1.67-1.577a1.093,1.093,0,0,0-1.536,0L.334,133.777a.954.954,0,0,0,0,1.451l15.562,14.7a1.093,1.093,0,0,0,1.536,0l1.67-1.576a.954.954,0,0,0,0-1.451L5.978,134.5,19.1,122.108A.971.971,0,0,0,19.437,121.383Z" transform="translate(0 -112.502)" fill="#29d6cf"/>
      <path id="Path_578" data-name="Path 578" d="M375.414,133.774l-15.563-14.7a1.092,1.092,0,0,0-1.536,0l-1.669,1.577a.956.956,0,0,0,0,1.451L369.77,134.5l-13.125,12.395a.956.956,0,0,0,0,1.451l1.669,1.576a1.093,1.093,0,0,0,1.536,0l15.563-14.7a.955.955,0,0,0,0-1.451Z" transform="translate(-317.747 -112.5)" fill="#29d6cf"/>
    </g>
  </g>
</svg>
