<svg xmlns="http://www.w3.org/2000/svg" width="138" height="39" viewBox="0 0 138 39">
  <g id="Group_11140" data-name="Group 11140" transform="translate(-141 -506)">
    <text id="Get_It_From_Appstore" data-name="Get It From
Appstore" transform="translate(188 520)" fill="#fff" font-size="13.353" font-family="Poppins-Regular, Poppins"><tspan x="0" y="0">Get It From</tspan><tspan font-size="19.076" font-family="Montserrat-SemiBold, Montserrat" font-weight="600"><tspan x="0" y="20">Appstore</tspan></tspan></text>
    <g id="apple" transform="translate(94.207 509)">
      <path id="Path_9700" data-name="Path 9700" d="M48.187,125.58c-2.793,4.695-1.018,11.819,2.071,16.139,1.542,2.16,3.1,4.1,5.241,4.1l.122,0a6.637,6.637,0,0,0,2.432-.628,6.836,6.836,0,0,1,2.881-.661,6.43,6.43,0,0,1,2.743.64,5.962,5.962,0,0,0,2.627.61c2.408-.043,3.887-2.135,5.192-3.981a17.412,17.412,0,0,0,2.275-4.513l.009-.028a.26.26,0,0,0-.144-.322l-.02-.008a6.717,6.717,0,0,1-4.183-6.123,6.863,6.863,0,0,1,3.358-5.754l.026-.016a.262.262,0,0,0,.119-.168.255.255,0,0,0-.042-.2,7.9,7.9,0,0,0-6.146-3.233c-.175-.017-.355-.025-.536-.025a11,11,0,0,0-3.858.933,6.353,6.353,0,0,1-1.848.535,6.2,6.2,0,0,1-1.911-.541,9.5,9.5,0,0,0-3.369-.829H55.14A8.3,8.3,0,0,0,48.187,125.58Z" transform="translate(0 -113.816)" fill="#fff"/>
      <path id="Path_9701" data-name="Path 9701" d="M257.074,0a7.307,7.307,0,0,0-4.824,2.474,6.845,6.845,0,0,0-1.733,5.076.262.262,0,0,0,.24.227c.112.009.226.013.339.013a6.18,6.18,0,0,0,4.553-2.335,7.217,7.217,0,0,0,1.7-5.222A.264.264,0,0,0,257.074,0Z" transform="translate(-190.391 0)" fill="#fff"/>
    </g>
  </g>
</svg>
