<svg id="Group_14277" data-name="Group 14277" xmlns="http://www.w3.org/2000/svg" width="49" height="164" viewBox="0 0 49 164">
  <g id="point-to" transform="translate(0 132)" opacity="0.7">
    <g id="Group_14276" data-name="Group 14276">
      <path id="Path_34455" data-name="Path 34455" d="M.3,102.04l15.312,15a1.035,1.035,0,0,0,1.443,0,.985.985,0,0,0,0-1.414L3.485,102.333H47.979a1,1,0,1,0,0-2H3.485L17.055,87.04a.985.985,0,0,0,0-1.414,1.036,1.036,0,0,0-1.444,0L.3,100.626A.985.985,0,0,0,.3,102.04Z" transform="translate(0 -85.333)" fill="#fff"/>
    </g>
  </g>
  <g id="point-to-2" data-name="point-to" transform="translate(0 0)">
    <g id="Group_14276-2" data-name="Group 14276">
      <path id="Path_34455-2" data-name="Path 34455" d="M48.7,102.04l-15.312,15a1.035,1.035,0,0,1-1.443,0,.985.985,0,0,1,0-1.414l13.57-13.293H1.021a1,1,0,1,1,0-2H45.515L31.945,87.04a.985.985,0,0,1,0-1.414,1.036,1.036,0,0,1,1.444,0l15.312,15A.985.985,0,0,1,48.7,102.04Z" transform="translate(0 -85.333)" fill="#fff"/>
    </g>
  </g>
</svg>
