<svg xmlns="http://www.w3.org/2000/svg" width="55" height="55" viewBox="0 0 55 55">
  <g id="Group_14258" data-name="Group 14258" transform="translate(-12.997 -12.41)">
    <g id="Ellipse_4" data-name="Ellipse 4" transform="translate(12.997 12.41)" fill="none" stroke="#29d6cf" stroke-width="3">
      <circle cx="27.5" cy="27.5" r="27.5" stroke="none"/>
      <circle cx="27.5" cy="27.5" r="26" fill="none"/>
    </g>
    <g id="Group_9244" data-name="Group 9244" transform="translate(29.738 37.426)">
      <path id="Path_571" data-name="Path 571" d="M2.483,0A2.483,2.483,0,1,1,0,2.483,2.483,2.483,0,0,1,2.483,0Z" fill="#29d6cf"/>
      <path id="Path_572" data-name="Path 572" d="M2.483,0A2.483,2.483,0,1,1,0,2.483,2.483,2.483,0,0,1,2.483,0Z" transform="translate(8.275)" fill="#29d6cf"/>
      <path id="Path_573" data-name="Path 573" d="M2.483,0A2.483,2.483,0,1,1,0,2.483,2.483,2.483,0,0,1,2.483,0Z" transform="translate(16.551)" fill="#29d6cf"/>
    </g>
  </g>
</svg>
