<svg xmlns="http://www.w3.org/2000/svg" width="62" height="56" viewBox="0 0 62 56">
  <g id="Group_11157" data-name="Group 11157" transform="translate(-22.833 -24.618)">
    <g id="monitor" transform="translate(22.833 24.618)">
      <g id="Group_63" data-name="Group 63" transform="translate(0 0)">
        <g id="Group_62" data-name="Group 62">
          <path id="Path_9723" data-name="Path 9723" d="M58.257,27.937H3.743A3.773,3.773,0,0,0,0,31.732v38.16a3.773,3.773,0,0,0,3.743,3.795h18.68v2.761A4.565,4.565,0,0,1,17.9,81.039H13.778a1.449,1.449,0,0,0,0,2.9H48.222a1.449,1.449,0,0,0,0-2.9H44.1a4.565,4.565,0,0,1-4.528-4.591V73.687h18.68A3.774,3.774,0,0,0,62,69.892V31.732A3.773,3.773,0,0,0,58.257,27.937Zm-34.533,53.1a7.515,7.515,0,0,0,1.557-4.591V73.687H36.719v2.761a7.515,7.515,0,0,0,1.557,4.591ZM59.142,69.892a.892.892,0,0,1-.884.9H3.743a.892.892,0,0,1-.884-.9V62.276H59.142Zm0-10.514H2.859V31.732a.892.892,0,0,1,.884-.9H58.257a.892.892,0,0,1,.885.9V59.378Z" transform="translate(0 -27.937)" fill="#29d6cf"/>
          <g id="Group_66" data-name="Group 66" transform="translate(22.982 10.634)">
            <path id="Path_9720" data-name="Path 9720" d="M211.116,307.909l2.3,3.494a15.709,15.709,0,0,1,9.16-7.163,24.768,24.768,0,0,0-9.052,10.715c-.067,0-.078-.045-.1-.074q-1.7-2.137-3.392-4.273a.219.219,0,0,1-.031-.268c.361-.781.716-1.566,1.073-2.349C211.084,307.969,211.1,307.947,211.116,307.909Z" transform="translate(-206.856 -302.977)" fill="#29d6cf" stroke="#29d6cf" stroke-width="0.5"/>
            <path id="Path_9721" data-name="Path 9721" d="M176.325,286.628c-.283-.068-.552-.148-.827-.2a7.055,7.055,0,0,0-6.433,1.861,6.687,6.687,0,0,0-2.041,3.875A6.874,6.874,0,0,0,172.177,300a6.961,6.961,0,0,0,8.159-4.411,7.357,7.357,0,0,0,.146-4.655.173.173,0,0,1-.01-.133,5.039,5.039,0,0,1,.358.969A7.383,7.383,0,0,1,176,300.707a7.573,7.573,0,0,1-9.771-5.565,7.331,7.331,0,0,1,2.355-7.33,6.93,6.93,0,0,1,3.9-1.776,7,7,0,0,1,3.745.529c.023.01.047.02.07.031C176.306,286.6,176.31,286.61,176.325,286.628Z" transform="translate(-166.028 -285.975)" fill="#29d6cf" stroke="#29d6cf" stroke-width="1"/>
          </g>
        </g>
      </g>
      <g id="Group_65" data-name="Group 65" transform="translate(29.408 36.993)">
        <g id="Group_64" data-name="Group 64">
          <circle id="Ellipse_4" data-name="Ellipse 4" cx="1.592" cy="1.592" r="1.592" fill="#29d6cf"/>
        </g>
      </g>
      <path id="Path_9726" data-name="Path 9726" d="M41.363,41.532V49.16" transform="translate(-32.25 -22.752)" fill="none" stroke="#29d6cf" stroke-linecap="round" stroke-width="2"/>
      <path id="Path_9727" data-name="Path 9727" d="M41.363,41.532V44.8" transform="translate(-32.25 -31.274)" fill="none" stroke="#29d6cf" stroke-linecap="round" stroke-width="2"/>
    </g>
  </g>
</svg>
