<svg xmlns="http://www.w3.org/2000/svg" width="400" height="56" viewBox="0 0 400 56">
  <g id="Group_14282" data-name="Group 14282" transform="translate(-106 -496.5)">
    <g id="Group_11139" data-name="Group 11139">
      <g id="App_Store" data-name="App Store" transform="translate(-758 -176.5)">
        <g id="Group_1" data-name="Group 1" transform="translate(-14 3)">
          <text id="Get_It_From_Playstore" data-name="Get It From
Playstore" transform="translate(1162 693)" fill="#fff" font-size="13.353" font-family="Poppins-Regular, Poppins"><tspan x="0" y="0">Get It From</tspan><tspan font-size="19.076" font-family="Montserrat-SemiBold, Montserrat" font-weight="600"><tspan x="0" y="20">Playstore</tspan></tspan></text>
          <g id="android-character-symbol" transform="translate(1076.461 680.501)">
            <g id="Group_39" data-name="Group 39" transform="translate(36.539 -0.001)">
              <path id="Path_9696" data-name="Path 9696" d="M38.737,153.884a2.119,2.119,0,0,0-1.558.64,2.1,2.1,0,0,0-.64,1.536v9.174a2.185,2.185,0,0,0,2.2,2.2,2.084,2.084,0,0,0,1.547-.64,2.137,2.137,0,0,0,.63-1.557V156.06a2.185,2.185,0,0,0-2.176-2.176Z" transform="translate(-36.539 -142.123)" fill="#fff"/>
              <path id="Path_9697" data-name="Path 9697" d="M106.494,173.517a2.331,2.331,0,0,0,.646,1.664,2.089,2.089,0,0,0,1.576.682h1.5l.02,4.843a2.182,2.182,0,0,0,.606,1.557,1.932,1.932,0,0,0,1.454.64,1.955,1.955,0,0,0,1.475-.64,2.181,2.181,0,0,0,.606-1.557v-4.843h2.788v4.843a2.182,2.182,0,0,0,.606,1.557,2.019,2.019,0,0,0,2.949,0,2.182,2.182,0,0,0,.606-1.557v-4.843h1.515a2.065,2.065,0,0,0,1.555-.682,2.331,2.331,0,0,0,.647-1.664V159.308H106.494Z" transform="translate(-101.267 -146.904)" fill="#fff"/>
              <path id="Path_9698" data-name="Path 9698" d="M119.293,3.264,120.727.469a.288.288,0,0,0-.1-.427.273.273,0,0,0-.4.128l-1.455,2.816a9.657,9.657,0,0,0-8.125,0L109.187.17a.273.273,0,0,0-.4-.128.288.288,0,0,0-.1.427l1.435,2.795a9.034,9.034,0,0,0-3.476,3.275,8.605,8.605,0,0,0-1.294,4.6h18.7a8.6,8.6,0,0,0-1.294-4.6A9.072,9.072,0,0,0,119.293,3.264ZM111,7.328a.738.738,0,0,1-.556.245.708.708,0,0,1-.546-.245.886.886,0,0,1,0-1.173.708.708,0,0,1,.546-.245.739.739,0,0,1,.556.245.857.857,0,0,1,0,1.173Zm8.519,0a.709.709,0,0,1-.546.245.738.738,0,0,1-.556-.245.857.857,0,0,1,0-1.173.738.738,0,0,1,.556-.245.709.709,0,0,1,.546.245.886.886,0,0,1,0,1.173Z" transform="translate(-100.205 0.001)" fill="#fff"/>
              <path id="Path_9699" data-name="Path 9699" d="M383.737,154.513a2.138,2.138,0,0,0-1.557-.629,2.112,2.112,0,0,0-1.536.629,2.085,2.085,0,0,0-.64,1.547v9.174a2.12,2.12,0,0,0,.64,1.557,2.093,2.093,0,0,0,1.536.64,2.185,2.185,0,0,0,2.2-2.2V156.06A2.084,2.084,0,0,0,383.737,154.513Z" transform="translate(-355.378 -142.123)" fill="#fff"/>
            </g>
          </g>
        </g>
      </g>
      <g id="Rectangle_8" data-name="Rectangle 8" transform="translate(316 496.5)" fill="none" stroke="#fff" stroke-width="2">
        <rect width="190" height="56" rx="10" stroke="none"/>
        <rect x="1" y="1" width="188" height="54" rx="9" fill="none"/>
      </g>
    </g>
    <g id="Group_11141" data-name="Group 11141">
      <g id="Group_11140" data-name="Group 11140" transform="translate(-8 -0.5)">
        <text id="Get_It_From_Appstore" data-name="Get It From
Appstore" transform="translate(188 520)" fill="#fff" font-size="13.353" font-family="Poppins-Regular, Poppins"><tspan x="0" y="0">Get It From</tspan><tspan font-size="19.076" font-family="Montserrat-SemiBold, Montserrat" font-weight="600"><tspan x="0" y="20">Appstore</tspan></tspan></text>
        <g id="apple" transform="translate(94.207 509)">
          <path id="Path_9700" data-name="Path 9700" d="M48.187,125.58c-2.793,4.695-1.018,11.819,2.071,16.139,1.542,2.16,3.1,4.1,5.241,4.1l.122,0a6.637,6.637,0,0,0,2.432-.628,6.836,6.836,0,0,1,2.881-.661,6.43,6.43,0,0,1,2.743.64,5.962,5.962,0,0,0,2.627.61c2.408-.043,3.887-2.135,5.192-3.981a17.412,17.412,0,0,0,2.275-4.513l.009-.028a.26.26,0,0,0-.144-.322l-.02-.008a6.717,6.717,0,0,1-4.183-6.123,6.863,6.863,0,0,1,3.358-5.754l.026-.016a.262.262,0,0,0,.119-.168.255.255,0,0,0-.042-.2,7.9,7.9,0,0,0-6.146-3.233c-.175-.017-.355-.025-.536-.025a11,11,0,0,0-3.858.933,6.353,6.353,0,0,1-1.848.535,6.2,6.2,0,0,1-1.911-.541,9.5,9.5,0,0,0-3.369-.829H55.14A8.3,8.3,0,0,0,48.187,125.58Z" transform="translate(0 -113.816)" fill="#fff"/>
          <path id="Path_9701" data-name="Path 9701" d="M257.074,0a7.307,7.307,0,0,0-4.824,2.474,6.845,6.845,0,0,0-1.733,5.076.262.262,0,0,0,.24.227c.112.009.226.013.339.013a6.18,6.18,0,0,0,4.553-2.335,7.217,7.217,0,0,0,1.7-5.222A.264.264,0,0,0,257.074,0Z" transform="translate(-190.391 0)" fill="#fff"/>
        </g>
      </g>
      <g id="Rectangle_9116" data-name="Rectangle 9116" transform="translate(106 496.5)" fill="none" stroke="#fff" stroke-width="2">
        <rect width="190" height="56" rx="10" stroke="none"/>
        <rect x="1" y="1" width="188" height="54" rx="9" fill="none"/>
      </g>
    </g>
  </g>
</svg>
