<svg xmlns="http://www.w3.org/2000/svg" width="25" height="25" viewBox="0 0 25 25">
  <path id="Path_34447" data-name="Path 34447" d="M25-2.256a.906.906,0,0,0-.053-.373C24.822-3,23.952-3.392,23.6-3.57c-1.012-.568-2.042-1.119-3.036-1.7-.462-.284-1.03-.817-1.58-.817-1.083,0-2.663,3.214-3.622,3.214a3.817,3.817,0,0,1-1.527-.692A17.667,17.667,0,0,1,6.57-10.832a3.817,3.817,0,0,1-.692-1.527c0-.959,3.214-2.539,3.214-3.622,0-.55-.533-1.119-.817-1.58-.586-.994-1.136-2.024-1.7-3.036-.178-.355-.568-1.225-.941-1.349A.906.906,0,0,0,5.256-22a7.9,7.9,0,0,0-2.468.55A4.678,4.678,0,0,0,.906-19.283,6.786,6.786,0,0,0,0-15.981a13.677,13.677,0,0,0,1.225,4.652A16.6,16.6,0,0,0,2.7-8.222,29.975,29.975,0,0,0,11.222.3a16.6,16.6,0,0,0,3.107,1.474A13.677,13.677,0,0,0,18.981,3a6.786,6.786,0,0,0,3.3-.906A4.678,4.678,0,0,0,24.45.212,7.9,7.9,0,0,0,25-2.256Z" transform="translate(0 22)" fill="#fff"/>
</svg>
