<svg xmlns="http://www.w3.org/2000/svg" width="25" height="20" viewBox="0 0 25 20">
  <path id="Path_34448" data-name="Path 34448" d="M25-11.408a8.263,8.263,0,0,1-1.4,1.236c-2.33,1.605-4.674,3.224-6.948,4.9-1.172.881-2.623,1.96-4.143,1.96h-.028c-1.521,0-2.972-1.08-4.143-1.96-2.274-1.69-4.618-3.3-6.934-4.9A7.843,7.843,0,0,1,0-11.408V-.13A2.259,2.259,0,0,0,2.232,2.143H22.768A2.259,2.259,0,0,0,25-.13Zm0-4.176a2.268,2.268,0,0,0-2.232-2.273H2.232C.739-17.857,0-16.664,0-15.272c0,1.293,1.409,2.9,2.4,3.58,2.162,1.534,4.353,3.068,6.515,4.616.907.639,2.441,1.946,3.571,1.946h.028c1.13,0,2.665-1.307,3.571-1.946,2.162-1.548,4.353-3.082,6.529-4.616A5.141,5.141,0,0,0,25-15.584Z" transform="translate(0 17.857)" fill="#fff"/>
</svg>
