<svg xmlns="http://www.w3.org/2000/svg" width="56.438" height="56.438" viewBox="0 0 56.438 56.438">
  <g id="research" transform="translate(0.2 0.238)">
    <path id="Path_23801" data-name="Path 23801" d="M38.153,40.206a20.445,20.445,0,0,1-2.366.137A19.955,19.955,0,0,1,24.894,37.11l-2.575,2.577L7.3,54.7a4.247,4.247,0,1,1-6.109-5.9c.034-.035.069-.071.1-.1L18.89,31.1a20.159,20.159,0,1,1,19.263,9.105Zm-18-7.363-1.593,1.593,3,3,1.591-1.592a20.291,20.291,0,0,1-3-3ZM2.176,51.7A2.108,2.108,0,0,0,2.8,53.2a2.172,2.172,0,0,0,3,0L20.063,38.936l-3-3L2.8,50.2a2.107,2.107,0,0,0-.622,1.5ZM53.754,18.083A18.047,18.047,0,1,0,37.908,38.1,18.048,18.048,0,0,0,53.754,18.083Zm0,0" transform="translate(-0.001 0)" fill="#29d6cf" stroke="#29d6cf" stroke-width="0.4"/>
    <path id="Path_23802" data-name="Path 23802" d="M50.2,43.851a13.812,13.812,0,0,0-10.238-2.912,1.07,1.07,0,0,1-.246-2.125A16.048,16.048,0,0,1,57.509,52.9h0a16.165,16.165,0,0,1,.107,2.3,1.069,1.069,0,0,1-1.07,1.041h-.029a1.069,1.069,0,0,1-1.041-1.1,14.311,14.311,0,0,0-.089-1.991,13.821,13.821,0,0,0-5.187-9.3Zm0,0" transform="translate(-5.897 -34.439)" fill="#29d6cf" stroke="#29d6cf" stroke-width="0.4"/>
    <path id="Path_23803" data-name="Path 23803" d="M83.32,141.14a3.16,3.16,0,0,1,.856-.238,3.2,3.2,0,0,1,2.64.945l3.735-1.746a3.21,3.21,0,1,1,5.873,1.423l1.971,2.56a1.07,1.07,0,0,1-1.7,1.3l-1.959-2.546a3.225,3.225,0,0,1-.628.137,3.09,3.09,0,0,1-.373.022,3.2,3.2,0,0,1-2.273-.963l-3.73,1.744a3.21,3.21,0,0,1-2.818,3.5,3.161,3.161,0,0,1-.372.022,3.2,3.2,0,0,1-2.818-4.731l-2.123-2.344a3.137,3.137,0,0,1-4.421-2.713l-2.653-.72a1.07,1.07,0,0,1,.561-2.066l2.65.72a3.2,3.2,0,0,1,5.444,3.335Zm10.545-.286a1.07,1.07,0,0,0-.122-2.132,1.194,1.194,0,0,0-.124.006,1.07,1.07,0,0,0,.246,2.126Zm-9.982,4.075a1.07,1.07,0,1,0,.666-1.91,1.233,1.233,0,0,0-.126.008,1.07,1.07,0,0,0-.535,1.9Zm-4.468-7.892a1.071,1.071,0,1,0-.143.806A1.07,1.07,0,0,0,79.415,137.037Zm0,0" transform="translate(-50.51 -119.42)" fill="#29d6cf" stroke="#29d6cf" stroke-width="0.4"/>
  </g>
</svg>
