<svg xmlns="http://www.w3.org/2000/svg" width="44.4" height="56.4" viewBox="0 0 44.4 56.4">
  <g id="surface1" transform="translate(0.2 0.2)">
    <path id="Path_23804" data-name="Path 23804" d="M39.368,21.548V16.406C39.368,7.36,31.577,0,22,0S4.632,7.36,4.632,16.406v5.141A5.565,5.565,0,0,0,0,26.906v6.209a1.127,1.127,0,0,0,1.158,1.094,1.127,1.127,0,0,0,1.158-1.094V26.906a3.385,3.385,0,0,1,3.474-3.281H38.211a3.385,3.385,0,0,1,3.474,3.281V50.531a3.3,3.3,0,0,1-2.316,3.093V47.031a1.16,1.16,0,0,0-2.316,0v6.781H5.789a3.385,3.385,0,0,1-3.474-3.281V41.891A1.127,1.127,0,0,0,1.158,40.8,1.127,1.127,0,0,0,0,41.891v8.641A5.642,5.642,0,0,0,5.789,56H38.211A5.642,5.642,0,0,0,44,50.531V26.906A5.565,5.565,0,0,0,39.368,21.548ZM13.2,21.438V16.406A8.576,8.576,0,0,1,22,8.094a8.576,8.576,0,0,1,8.8,8.313v5.031Zm19.916,0V16.406c0-5.79-4.987-10.5-11.116-10.5s-11.116,4.71-11.116,10.5v5.031H6.947V16.406C6.947,8.566,13.7,2.187,22,2.187S37.053,8.566,37.053,16.406v5.031Zm0,0" fill="#29d6cf" stroke="#29d6cf" stroke-width="0.4"/>
    <path id="Path_23805" data-name="Path 23805" d="M1.1,334.692a1.1,1.1,0,1,0-1.1-1.1,1.1,1.1,0,0,0,1.1,1.1Zm0,0" transform="translate(0 -296.133)" fill="#29d6cf" stroke="#29d6cf" stroke-width="0.4"/>
    <path id="Path_23806" data-name="Path 23806" d="M142.065,295.979a3.309,3.309,0,0,0,3.306-3.306v-5.851a5.95,5.95,0,1,0-6.612-.019v5.87A3.309,3.309,0,0,0,142.065,295.979Zm-3.732-14.114a3.747,3.747,0,1,1,5.438,3.343,1.1,1.1,0,0,0-.6.983v6.483a1.1,1.1,0,1,1-2.2,0v-6.5a1.1,1.1,0,0,0-.6-.979A3.735,3.735,0,0,1,138.333,281.864Zm0,0" transform="translate(-120.064 -245.929)" fill="#29d6cf" stroke="#29d6cf" stroke-width="0.4"/>
    <path id="Path_23807" data-name="Path 23807" d="M321.1,381.2a1.1,1.1,0,1,0-.779-.323A1.108,1.108,0,0,0,321.1,381.2Zm0,0" transform="translate(-282.612 -337.559)" fill="#29d6cf" stroke="#29d6cf" stroke-width="0.4"/>
  </g>
</svg>
