<svg xmlns="http://www.w3.org/2000/svg" width="25" height="25" viewBox="0 0 25 25">
  <path id="Path_34446" data-name="Path 34446" d="M-7.857-25.714a.394.394,0,0,0-.209.056l-6.7,3.571A.441.441,0,0,0-15-21.7V-1.161a.459.459,0,0,0,.446.446.394.394,0,0,0,.209-.056l6.7-3.571a.441.441,0,0,0,.237-.391V-25.268A.459.459,0,0,0-7.857-25.714Zm17.411,0a.394.394,0,0,0-.209.056l-6.7,3.571a.441.441,0,0,0-.237.391V-1.161a.459.459,0,0,0,.446.446A.394.394,0,0,0,3.066-.77l6.7-3.571A.441.441,0,0,0,10-4.732V-25.268A.459.459,0,0,0,9.554-25.714Zm-15.625,0a.459.459,0,0,0-.446.446V-4.732a.466.466,0,0,0,.251.4L.876-.756a.446.446,0,0,0,.2.042.459.459,0,0,0,.446-.446V-21.7a.466.466,0,0,0-.251-.4l-7.143-3.571A.446.446,0,0,0-6.071-25.714Z" transform="translate(15 25.714)" fill="#fff"/>
</svg>
