<svg xmlns="http://www.w3.org/2000/svg" width="48" height="57.019" viewBox="0 0 48 57.019">
  <g id="secure-shield" transform="translate(0.5 0.519)">
    <g id="Group_9196" data-name="Group 9196" transform="translate(0 0)">
      <g id="Group_9195" data-name="Group 9195">
        <path id="Path_23796" data-name="Path 23796" d="M83.828,9.67A90.9,90.9,0,0,1,61.771.163a1.143,1.143,0,0,0-1.179,0A88.413,88.413,0,0,1,38.534,9.67a1.175,1.175,0,0,0-.853,1.136V22.842a34.887,34.887,0,0,0,10.348,25.3C53.112,53.2,59.032,56,61.181,56s8.069-2.8,13.152-7.859a34.887,34.887,0,0,0,10.348-25.3V10.806A1.175,1.175,0,0,0,83.828,9.67ZM82.362,22.842A32.56,32.56,0,0,1,72.71,46.458c-5,4.976-10.341,7.185-11.529,7.185s-6.532-2.209-11.53-7.185A32.561,32.561,0,0,1,40,22.842V11.7A90.534,90.534,0,0,0,61.182,2.543,93.4,93.4,0,0,0,82.362,11.7Z" transform="translate(-37.681 0)" fill="#29d6cf" stroke="#29d6cf" stroke-width="1"/>
        <path id="Path_23797" data-name="Path 23797" d="M88.933,99.676a1.155,1.155,0,0,0-1.5-.652c-2.064.813-4.183,1.562-6.3,2.225a1.156,1.156,0,0,0-.81,1.1v4.462a1.156,1.156,0,1,0,2.311,0V103.2c1.9-.614,3.792-1.293,5.643-2.022A1.155,1.155,0,0,0,88.933,99.676Z" transform="translate(-75.751 -87)" fill="#29d6cf"/>
        <path id="Path_23798" data-name="Path 23798" d="M171.361,88.523a1.156,1.156,0,0,0,.463-.1l.021-.009a1.156,1.156,0,1,0-.933-2.114l-.019.008a1.155,1.155,0,0,0,.467,2.213Z" transform="translate(-155.935 -75.69)" fill="#29d6cf"/>
        <path id="Path_23799" data-name="Path 23799" d="M312.021,345.716a1.156,1.156,0,0,0-1.6.335A28.12,28.12,0,0,1,307.1,350.2a29.514,29.514,0,0,1-3.315,2.949,1.156,1.156,0,1,0,1.4,1.838,31.861,31.861,0,0,0,3.575-3.18,30.405,30.405,0,0,0,3.594-4.49A1.156,1.156,0,0,0,312.021,345.716Z" transform="translate(-275.749 -308.663)" fill="#29d6cf"/>
        <path id="Path_23800" data-name="Path 23800" d="M277.207,432.124l-.066.039a1.155,1.155,0,1,0,1.158,2l.077-.045a1.155,1.155,0,1,0-1.168-1.994Z" transform="translate(-251.884 -385.609)" fill="#29d6cf"/>
      </g>
    </g>
    <g id="Group_9197" data-name="Group 9197" transform="translate(14.408 19.549)">
      <path id="Path_9720" data-name="Path 9720" d="M211.275,308.418l2.62,3.979a17.889,17.889,0,0,1,10.43-8.156,28.2,28.2,0,0,0-10.308,12.2c-.076,0-.089-.051-.115-.084q-1.931-2.433-3.862-4.866a.249.249,0,0,1-.035-.305c.411-.89.815-1.783,1.222-2.675C211.238,308.486,211.253,308.461,211.275,308.418Z" transform="translate(-206.366 -302.802)" fill="#29d6cf" stroke="#29d6cf" stroke-width="0.5"/>
      <path id="Path_9721" data-name="Path 9721" d="M177.793,286.705c-.323-.077-.631-.166-.945-.221a8.179,8.179,0,0,0-7.351,2.081,7.428,7.428,0,0,0-2.332,4.333,7.691,7.691,0,0,0,5.889,8.757,7.994,7.994,0,0,0,9.488-10.138.19.19,0,0,1-.012-.149,5.557,5.557,0,0,1,.409,1.083,8.227,8.227,0,0,1-5.519,10,8.673,8.673,0,0,1-11.164-6.223,8.093,8.093,0,0,1,2.691-8.2,8,8,0,0,1,4.458-1.986,8.158,8.158,0,0,1,4.279.592c.027.011.054.022.08.035C177.771,286.674,177.776,286.685,177.793,286.705Z" transform="translate(-166.028 -285.975)" fill="#29d6cf" stroke="#29d6cf" stroke-width="0.5"/>
    </g>
  </g>
</svg>
